<?xml version="1.0" encoding="iso-8859-1"?>
<!-- Generator: Adobe Illustrator 19.0.0, SVG Export Plug-In . SVG Version: 6.00 Build 0)  -->
<svg xmlns="http://www.w3.org/2000/svg" xmlns:xlink="http://www.w3.org/1999/xlink" version="1.1" id="Layer_1" x="0px" y="0px" viewBox="0 0 512.436 512.436" style="enable-background:new 0 0 512.436 512.436;" xml:space="preserve" width="512" height="512">
<g>
	<path d="M512.436,21.409L491.248,0.17L411.389,79.84L233.671,59.215L0,292.582l219.396,219.683l233.671-233.367l-20.411-177.899   L512.436,21.409z M219.424,469.838L42.426,292.609L244.612,90.687l158.778,18.426l18.22,158.802L219.424,469.838z"/>
	<g>
		<path d="M329.727,233.104c-13.481,0-26.152-5.253-35.678-14.792c-9.518-9.529-14.755-22.195-14.746-35.664    s5.262-26.127,14.792-35.645c9.521-9.508,22.176-14.745,35.632-14.745c13.48,0,26.151,5.253,35.678,14.791    c19.647,19.674,19.626,51.663-0.047,71.31C355.836,227.868,343.183,233.104,329.727,233.104z M329.727,162.258    c-5.45,0-10.576,2.121-14.433,5.973c-3.86,3.854-5.987,8.982-5.991,14.437s2.117,10.585,5.973,14.445    c3.858,3.864,8.99,5.992,14.451,5.992c5.45,0,10.575-2.121,14.432-5.972c7.968-7.958,7.977-20.915,0.02-28.883    C340.319,164.386,335.187,162.258,329.727,162.258z"/>
	</g>
	<g>
		<path d="M199.18,361.646h-46.002v-46.001c0-42.183,34.318-76.502,76.502-76.502h46.002v46.001    C275.682,327.327,241.363,361.646,199.18,361.646z M183.178,331.646h16.002c25.642,0,46.502-20.861,46.502-46.502v-16.001H229.68    c-25.642,0-46.502,20.861-46.502,46.502V331.646z"/>
	</g>
</g>















</svg>
